<!DOCTYPE svg PUBLIC "-//W3C//DTD SVG 1.1//EN" "http://www.w3.org/Graphics/SVG/1.1/DTD/svg11.dtd">
<!-- Uploaded to: SVG Repo, www.svgrepo.com, Transformed by: SVG Repo Mixer Tools -->
<svg height="800px" width="800px" version="1.1" id="Capa_1" xmlns="http://www.w3.org/2000/svg" xmlns:xlink="http://www.w3.org/1999/xlink" viewBox="0 0 512 512" xml:space="preserve" fill="#000000">
<g id="SVGRepo_bgCarrier" stroke-width="0"/>
<g id="SVGRepo_tracerCarrier" stroke-linecap="round" stroke-linejoin="round"/>
<g id="SVGRepo_iconCarrier"> <path style="fill:#feffe0;" d="M501.651,217.909c-6.465-4.318-14.657-5.124-21.835-2.149L107.462,369.989 c-10.257,4.249-16.084,15.152-13.921,26.041c2.167,10.888,11.724,18.731,22.827,18.731l372.355,0.002 c6.172,0,12.092-2.451,16.455-6.816c4.366-4.366,6.817-10.283,6.817-16.456V237.259 C511.993,229.488,508.113,222.228,501.651,217.909z"/> <path style="fill:#f2e5b5;" d="M501.651,217.909c-6.465-4.318-14.657-5.124-21.835-2.149l-177.273,73.425v125.578h186.178 c6.172,0,12.092-2.451,16.455-6.816c4.366-4.366,6.817-10.283,6.817-16.456V237.259 C511.993,229.488,508.113,222.228,501.651,217.909z"/> <path style="fill:#707ff5;" d="M480.571,156.764l-68.048,28.183c-2.911,1.205-5.927,1.778-8.896,1.778 c-9.134,0-17.797-5.41-21.508-14.373c-4.918-11.875,0.721-25.489,12.595-30.407l66.032-27.351 c-22.636-34.565-61.265-55.923-103.711-55.923c-16.301,0-32.257,3.187-47.422,9.469l-186.181,77.116 c-30.606,12.679-54.446,36.519-67.126,67.124c-12.677,30.609-12.676,64.324,0.005,94.932l29.652,71.587l-71.59,29.652 C2.499,413.468-3.141,427.08,1.777,438.958c3.713,8.961,12.379,14.371,21.51,14.371c2.968,0,5.984-0.571,8.896-1.778 l465.163-192.676c0.003-0.002,0.008-0.003,0.012-0.006l0.27-0.11c11.873-4.92,17.513-18.534,12.595-30.407L480.571,156.764z"/> <path style="fill:#361df7;" d="M510.223,228.352l-29.65-71.588l-68.048,28.183c-2.911,1.205-5.927,1.778-8.896,1.778 c-9.134,0-17.797-5.41-21.508-14.373c-4.918-11.875,0.721-25.489,12.595-30.407l66.032-27.351 c-22.636-34.565-61.265-55.923-103.711-55.923c-16.301,0-32.257,3.187-47.422,9.469l-84.192,34.871l94.93,229.177l176.995-73.313 c0.003-0.002,0.008-0.003,0.012-0.006l0.27-0.11C509.501,253.84,515.141,240.224,510.223,228.352z"/> </g>
</svg>