<svg xmlns="http://www.w3.org/2000/svg" viewBox="0 0 640 512"><!--!Font Awesome Free 6.7.2 by @fontawesome - https://fontawesome.com License - https://fontawesome.com/license/free Copyright 2025 Fonticons, Inc.--><path fill="#e8268e" d="M115.4 136.9l102.1 37.2c35.2-81.5 86.2-144.3 139-173.7-95.9-4.9-188.8 37-248.5 111.8-6.7 8.4-2.7 21.1 7.4 24.7zm132.3 48.2l238.5 86.8c35.8-121.4 18.7-231.7-42.6-254-7.4-2.7-15.1-4-23.1-4-58 0-128.3 69.2-172.8 171.2zM521.5 60.5c6.2 16.3 10.8 34.6 13.2 55.2 5.7 49.9-1.4 108.2-19 167l102.6 37.4c10.1 3.7 21.3-3.4 21.6-14.2 2.3-95.7-41.9-187.4-118.4-245.4zM560 448H321.1L386 269.5l-60.1-21.9-72.9 200.4H16c-8.8 0-16 7.2-16 16v32C0 504.8 7.2 512 16 512h544c8.8 0 16-7.2 16-16v-32c0-8.8-7.2-16-16-16z"/></svg>